<svg width="20" height="19" viewBox="0 0 20 19" fill="none" xmlns="http://www.w3.org/2000/svg">
<path d="M4.75 19.0004C4.33579 19.0004 4 18.6646 4 18.2504C4 17.8707 4.28215 17.5569 4.64823 17.5072L4.75 17.5004L6.499 17.5V15.002L2.25 15.0022C1.05914 15.0022 0.0843599 14.0771 0.0051899 12.9063L0 12.7522V2.25C0 1.05914 0.92516 0.0843599 2.09595 0.0051899L2.25 0H17.7488C18.9397 0 19.9145 0.92516 19.9936 2.09595L19.9988 2.25V12.7522C19.9988 13.9431 19.0737 14.9179 17.9029 14.997L17.7488 15.0022L13.499 15.002V17.5L15.25 17.5004C15.6642 17.5004 16 17.8362 16 18.2504C16 18.6301 15.7178 18.9439 15.3518 18.9936L15.25 19.0004H4.75ZM11.998 15.002H7.998L7.999 17.5004H11.999L11.998 15.002ZM17.7488 1.5H2.25C1.8703 1.5 1.55651 1.78216 1.50685 2.14823L1.5 2.25V12.7522C1.5 13.1319 1.78215 13.4457 2.14823 13.4954L2.25 13.5022H17.7488C18.1285 13.5022 18.4423 13.2201 18.492 12.854L18.4988 12.7522V2.25C18.4988 1.87031 18.2167 1.55651 17.8506 1.50685L17.7488 1.5Z" fill="#3A3A3C"/>
</svg>
