<svg width="16" height="16" viewBox="0 0 16 16" fill="none" xmlns="http://www.w3.org/2000/svg">
<path d="M7.99984 1.3335C9.47257 1.3335 10.6665 2.5274 10.6665 4.00016V5.3335H12.3332C12.8854 5.3335 13.3332 5.78121 13.3332 6.3335V13.6668C13.3332 14.2191 12.8854 14.6668 12.3332 14.6668H3.6665C3.11422 14.6668 2.6665 14.2191 2.6665 13.6668V6.3335C2.6665 5.78121 3.11422 5.3335 3.6665 5.3335H5.33317V4.00016C5.33317 2.5274 6.52708 1.3335 7.99984 1.3335ZM7.9999 9.00016C7.44764 9.00016 6.9999 9.4479 6.9999 10.0002C6.9999 10.5524 7.44764 11.0002 7.9999 11.0002C8.55224 11.0002 8.9999 10.5524 8.9999 10.0002C8.9999 9.4479 8.55224 9.00016 7.9999 9.00016ZM7.99984 2.66683C7.26344 2.66683 6.6665 3.26378 6.6665 4.00016V5.3335H9.33317V4.00016C9.33317 3.26378 8.73624 2.66683 7.99984 2.66683Z" fill="white"/>
</svg>
