<svg width="12" height="12" viewBox="0 0 12 12" fill="none" xmlns="http://www.w3.org/2000/svg">
<path d="M2.12444 6.99765L5.06265 6.99755C4.88806 7.2089 4.77542 7.4733 4.75254 7.76295L4.74823 7.8727V10.1227C4.74823 10.4551 4.86624 10.7601 5.06265 10.9979L4.99823 10.9982C3.28774 10.9982 2.02627 10.4621 1.25519 9.37995C1.08921 9.147 1 8.8681 1 8.5821V8.1221C1 7.5011 1.50343 6.99765 2.12444 6.99765ZM7.37325 5.7477H8.87325C9.19685 5.7477 9.463 5.9936 9.495 6.3088L9.49825 6.3727L9.498 6.9975L10.1233 6.9977C10.6065 6.9977 10.9983 7.38945 10.9983 7.8727V10.1227C10.9983 10.6059 10.6065 10.9977 10.1233 10.9977H6.12325C5.64 10.9977 5.24825 10.6059 5.24825 10.1227V7.8727C5.24825 7.38945 5.64 6.9977 6.12325 6.9977L6.748 6.9975L6.74825 6.3727C6.74825 6.0491 6.99415 5.7829 7.30935 5.7509L7.37325 5.7477H8.87325H7.37325ZM8.74825 6.4977H7.49825L7.498 6.9975H8.748L8.74825 6.4977ZM4.99823 1C6.37895 1 7.49825 2.11929 7.49825 3.5C7.49825 4.88071 6.37895 6 4.99823 6C3.61752 6 2.49823 4.88071 2.49823 3.5C2.49823 2.11929 3.61752 1 4.99823 1Z" fill="#FFCC00"/>
</svg>
